<svg width="90" height="90" viewBox="0 0 90 90" fill="none" xmlns="http://www.w3.org/2000/svg">
<g clip-path="url(#clip0)">
<path d="M15.5526 51.7466L17.7285 50.8088L44.6666 39.1963L73.7807 51.7466L62.841 74.1404L36.098 77.8915L15.9905 56.3722L15.5526 51.7466Z" fill="#133444"/>
<path d="M67.7246 37.9375C62.9172 32.197 56.1069 28.4614 48.6484 27.474C48.4891 27.4516 48.3298 27.4319 48.1706 27.4147C45.8425 27.1463 43.4909 27.1463 41.1628 27.4147C41.0035 27.4332 40.8443 27.4529 40.685 27.474C33.2265 28.4614 26.4161 32.197 21.6087 37.9375V37.9375L20.3983 39.9275L18.3816 43.2364L16.9064 45.6667C16.8785 45.7318 16.8506 45.7989 16.8247 45.8641L16.8068 45.9095L20.0619 47.8186L40.687 59.9168L44.6687 62.2523V33.3355L40.687 35.1281V30.7986L44.6687 29.004L48.6503 30.7986L68.937 39.9354L67.7246 37.9375Z" fill="#C42370"/>
<path d="M74.6667 58.9437C74.6667 68.5741 70.0519 77.5845 62.8968 83.3928C60.0835 85.6894 56.8687 87.4541 53.4125 88.5989C50.5916 89.5271 47.6388 90.0004 44.6667 90.0006C28.0989 90.0006 14.6667 75.3734 14.6667 58.9437C14.6647 56.5181 14.9622 54.1014 15.5526 51.7476L44.6667 68.8268L73.7808 51.7476C74.3712 54.1014 74.6687 56.5181 74.6667 58.9437V58.9437Z" fill="#1C4D6B"/>
<path d="M41.1628 27.4208L44.6666 28.9982L40.685 30.7928V27.2056L41.1628 27.4208Z" fill="black"/>
<path d="M40.685 35.1276L44.6666 33.335V62.2636L40.685 59.9281V35.1276Z" fill="black"/>
<path d="M44.6667 33.335V62.2636L72.5643 45.8991L44.6667 33.335Z" fill="#1D4259"/>
<path d="M44.6667 0V33.3352L72.5643 45.8993L44.6667 0Z" fill="#4B6B9A"/>
<path d="M44.6666 33.3352V62.2639L40.6849 59.9283L16.8048 45.9112L16.769 45.8895L16.8227 45.8658C16.8486 45.8006 16.8765 45.7335 16.9043 45.6684L20.3943 39.9253L40.6849 30.7983V35.1417L44.6666 33.3352Z" fill="#343535"/>
<path d="M44.6666 33.335V62.2636L40.6849 59.9281L16.8048 45.9208L16.769 45.8991L16.8227 45.8754L40.6849 35.1276L44.6666 33.335Z" fill="#3E5578"/>
<path d="M44.6666 0V33.3352L16.769 45.8993L44.6666 0Z" fill="#6DB2D8"/>
<path d="M33.3806 87.627C33.7966 87.8086 34.2187 87.9803 34.6428 88.1422C34.2101 87.9803 33.7893 87.8086 33.3806 87.627Z" fill="#335F8A"/>
<path d="M34.6328 88.1426C35.0589 88.3045 35.4869 88.4565 35.9209 88.5986C35.4869 88.4578 35.0575 88.3058 34.6328 88.1426Z" fill="#335F8A"/>
<path d="M37.0298 88.937C37.3603 89.0298 37.6927 89.1186 38.0252 89.1996C37.6921 89.118 37.3603 89.0305 37.0298 88.937Z" fill="#335F8A"/>
<path d="M15.5526 51.7476L44.6667 68.8268C44.2779 71.4257 43.5782 73.9693 42.5823 76.4039C40.253 81.9871 35.5466 87.8921 26.4405 83.4007C19.2814 77.5885 14.6667 68.5741 14.6667 58.9437C14.6647 56.5181 14.9622 54.1014 15.5526 51.7476V51.7476Z" fill="#6DB2D8"/>
<path d="M62.8928 83.3941L62.8212 83.4513C62.6699 83.5737 62.5185 83.6942 62.3653 83.8126L62.3254 83.8442C62.1595 83.9758 61.9923 84.1022 61.8237 84.2233C61.6426 84.3575 61.4594 84.4917 61.2743 84.6181C61.0891 84.7445 60.904 84.8767 60.7168 85.0031C60.5297 85.1294 60.3864 85.2242 60.2211 85.3308L60.1295 85.39C59.9543 85.5026 59.7792 85.6131 59.604 85.7197C59.5831 85.7345 59.5611 85.7477 59.5383 85.7592C59.3571 85.8717 59.1759 85.9803 58.9928 86.085C58.8096 86.1896 58.5946 86.312 58.3955 86.4206C58.1964 86.5292 57.9973 86.6338 57.7983 86.7365L57.7764 86.7483C57.5773 86.851 57.3782 86.9457 57.1791 87.0484C56.98 87.1511 56.7809 87.2458 56.5659 87.3426C56.3509 87.4393 56.1518 87.54 55.9448 87.6229C55.5287 87.8045 55.1066 87.9763 54.6826 88.1382C54.2585 88.3001 53.8285 88.4521 53.3945 88.5942C53.2213 88.6515 53.0481 88.7068 52.8729 88.7601C52.6977 88.8134 52.4748 88.8785 52.2856 88.9338C51.9551 89.0266 51.6227 89.1154 51.2902 89.1964C51.1648 89.228 51.0374 89.2576 50.91 89.2852L50.6969 89.3346C50.5197 89.3741 50.3426 89.4116 50.1634 89.4471C49.9842 89.4826 49.8369 89.5122 49.6716 89.5419C49.5064 89.5715 49.371 89.5971 49.2197 89.6208C49.0684 89.6445 48.8853 89.6741 48.718 89.6978C48.6364 89.7116 48.5548 89.7235 48.4712 89.7334L48.0949 89.7827L47.8859 89.8084C47.7485 89.8262 47.6091 89.84 47.4698 89.8538C47.2986 89.8716 47.1293 89.8874 46.9581 89.9012C46.8247 89.911 46.6914 89.9229 46.56 89.9308C46.4286 89.9387 46.329 89.9466 46.2116 89.9505H46.1956C46.0603 89.9505 45.9249 89.9663 45.7975 89.9703C45.6103 89.9703 45.4212 89.9841 45.2321 89.988C45.0429 89.992 44.8538 89.988 44.6627 89.988C44.4716 89.988 44.2824 89.988 44.0933 89.988C43.9042 89.988 43.715 89.988 43.5279 89.9703C43.3905 89.9703 43.2552 89.9584 43.1198 89.9505H43.1039C42.9864 89.9505 42.8709 89.9387 42.7555 89.9308C42.64 89.9229 42.4887 89.911 42.3573 89.9012C42.1861 89.8874 42.0169 89.8716 41.8456 89.8538C41.7063 89.84 41.5669 89.8262 41.4296 89.8084L41.2305 89.7827C41.1051 89.7689 40.9796 89.7511 40.8542 89.7334C40.7706 89.7334 40.689 89.7116 40.6073 89.6978C40.4388 89.6741 40.2716 89.6485 40.1057 89.6208C39.9543 89.5971 39.803 89.5695 39.6537 89.5419C39.5044 89.5142 39.3252 89.4807 39.162 89.4471C38.9987 89.4135 38.8056 89.3741 38.6284 89.3346L38.4154 89.2852C38.288 89.2576 38.1606 89.228 38.0352 89.1964C37.7007 89.1154 37.3682 89.0266 37.0398 88.9338L36.4425 88.7601C36.2673 88.7068 36.0941 88.6515 35.9209 88.5942C35.4869 88.4521 35.0589 88.3001 34.6328 88.1382C34.2068 87.9763 33.7788 87.8085 33.3806 87.6269C33.1815 87.536 32.9665 87.4413 32.7594 87.3465C32.5524 87.2517 32.3493 87.1491 32.1463 87.0523C31.9432 86.9556 31.7481 86.8549 31.549 86.7523L31.5271 86.7404C31.328 86.6378 31.1289 86.5311 30.9299 86.4245C30.7308 86.3179 30.5317 86.2034 30.3326 86.0889C30.1335 85.9744 29.9762 85.8796 29.7971 85.7632L29.7314 85.7237C29.5562 85.6171 29.381 85.5065 29.2058 85.394L29.1142 85.3348C28.949 85.2281 28.7817 85.1176 28.6185 85.007C28.4552 84.8965 28.2442 84.7524 28.0611 84.6221C27.8779 84.4918 27.6928 84.3575 27.5116 84.2272C27.3304 84.0969 27.1751 83.9765 27.0099 83.8481L26.9701 83.8166C26.8168 83.6981 26.6655 83.5777 26.5142 83.4553L26.4425 83.398C35.5486 87.8894 40.255 81.9845 42.5842 76.4013C43.5797 73.9686 44.2794 71.4269 44.6687 68.8301C45.0571 71.4275 45.7561 73.9698 46.7511 76.4033C49.0804 81.9805 53.7867 87.8855 62.8928 83.3941Z" fill="#529BBA"/>
<path d="M51.2982 89.1996C51.6326 89.1186 51.9651 89.0298 52.2936 88.937C51.9697 89.0318 51.6379 89.1193 51.2982 89.1996Z" fill="#335F8A"/>
<path d="M53.4124 88.5986C53.8464 88.4565 54.2744 88.3045 54.7005 88.1426C54.2771 88.3058 53.8477 88.4578 53.4124 88.5986Z" fill="#335F8A"/>
<path d="M54.7005 88.1422C55.1246 87.9803 55.5466 87.8086 55.9627 87.627C55.5473 87.8086 55.1265 87.9803 54.7005 88.1422Z" fill="#335F8A"/>
<path d="M74.6667 58.9437C74.6667 68.5741 70.0499 77.5865 62.8928 83.3948C53.7867 87.8862 49.0804 81.9812 46.7511 76.398C45.7556 73.9653 45.0559 71.4236 44.6667 68.8268L73.7808 51.7476C74.3712 54.1014 74.6687 56.5181 74.6667 58.9437V58.9437Z" fill="#4B6B9A"/>
</g>
<defs>
<clipPath id="clip0">
<rect width="90" height="90" fill="white"/>
</clipPath>
</defs>
</svg>
