<svg width="1396" height="925" viewBox="0 0 1396 925" fill="none" xmlns="http://www.w3.org/2000/svg">
<g opacity="0.3">
<path d="M140.355 165.237L65.4838 145.175L85.5455 70.3037L140.355 165.237Z" fill="#6141ED"/>
<path opacity="0.484375" d="M102.92 155.206L65.4838 145.175L75.5147 107.74L102.92 155.206Z" fill="#7E66EC"/>
<path d="M75.5147 107.74L112.95 117.77L102.92 155.206L75.5147 107.74Z" fill="#7E66EC"/>
</g>
<g opacity="0.3">
<path d="M295 294L395 294L395 394L295 294Z" fill="#6141ED"/>
<path opacity="0.484375" d="M345 294L395 294L395 344L345 294Z" fill="#7E66EC"/>
<path d="M395 344L345 344L345 294L395 344Z" fill="#7E66EC"/>
</g>
<g opacity="0.3">
<path d="M436.073 27.8983L477.063 180.49L324.812 221.139L436.073 27.8983Z" fill="#03CC79"/>
<path opacity="0.484375" d="M456.569 104.101L477.064 180.397L400.938 200.721L456.569 104.101Z" fill="#5DBC86"/>
<path d="M400.938 200.721L380.444 124.425L456.569 104.101L400.938 200.721Z" fill="#5DBC86"/>
</g>
<g opacity="0.3">
<path d="M535 634V534H635L535 634Z" fill="#6141ED"/>
<path opacity="0.484375" d="M535 584V534H585L535 584Z" fill="#7E66EC"/>
<path d="M585 534V584H535L585 534Z" fill="#7E66EC"/>
</g>
<g opacity="0.3">
<path d="M663.603 685L713.603 771.603L627 821.603L663.603 685Z" fill="#6141ED"/>
<path opacity="0.484375" d="M688.603 728.301L713.603 771.603L670.301 796.603L688.603 728.301Z" fill="#7E66EC"/>
<path d="M670.301 796.603L645.301 753.301L688.603 728.301L670.301 796.603Z" fill="#7E66EC"/>
</g>
<g opacity="0.3">
<path d="M585 344L559.96 300.642L603.222 275.699L585 344Z" fill="#6141ED"/>
<path opacity="0.484375" d="M572.48 322.349L559.96 300.67L581.591 288.199L572.48 322.349Z" fill="#7E66EC"/>
<path d="M581.591 288.199L594.111 309.878L572.48 322.349L581.591 288.199Z" fill="#7E66EC"/>
</g>
<g opacity="0.3">
<path d="M893.135 735L957.454 772.135L920.32 836.454L893.135 735Z" fill="#6141ED"/>
<path opacity="0.484375" d="M925.295 753.568L957.454 772.135L938.887 804.295L925.295 753.568Z" fill="#7E66EC"/>
<path d="M938.887 804.295L906.727 785.727L925.295 753.568L938.887 804.295Z" fill="#7E66EC"/>
</g>
<g opacity="0.3">
<path d="M860.355 645.237L763.763 619.355L789.645 522.763L860.355 645.237Z" fill="#6141ED"/>
<path opacity="0.484375" d="M812.059 632.296L763.763 619.355L776.704 571.059L812.059 632.296Z" fill="#7E66EC"/>
<path d="M776.704 571.059L825 584L812.059 632.296L776.704 571.059Z" fill="#7E66EC"/>
</g>
<g opacity="0.3">
<path d="M620.355 42.7629L523.763 68.6448L549.645 165.237L620.355 42.7629Z" fill="#6141ED"/>
<path opacity="0.484375" d="M572.059 55.7038L523.763 68.6448L536.704 116.941L572.059 55.7038Z" fill="#7E66EC"/>
<path d="M536.704 116.941L585 104L572.059 55.7038L536.704 116.941Z" fill="#7E66EC"/>
</g>
<g opacity="0.3">
<path d="M763.593 308L789.474 404.593L692.882 430.474L763.593 308Z" fill="#6141ED"/>
<path opacity="0.484375" d="M776.534 356.296L789.474 404.593L741.178 417.533L776.534 356.296Z" fill="#7E66EC"/>
<path d="M741.178 417.533L728.237 369.237L776.534 356.296L741.178 417.533Z" fill="#7E66EC"/>
</g>
<g opacity="0.3">
<path d="M789.645 42.7629L886.237 68.6448L860.355 165.237L789.645 42.7629Z" fill="#6141ED"/>
<path opacity="0.484375" d="M837.941 55.7038L886.237 68.6448L873.296 116.941L837.941 55.7038Z" fill="#7E66EC"/>
<path d="M873.296 116.941L825 104L837.941 55.7038L873.296 116.941Z" fill="#7E66EC"/>
</g>
<g opacity="0.3">
<path d="M1100.36 522.763L1145.36 690.726L977.398 735.732L1100.36 522.763Z" fill="#ED9182"/>
<path opacity="0.484375" d="M1122.86 606.745L1145.36 690.726L1061.38 713.229L1122.86 606.745Z" fill="#ED9182"/>
<path d="M1061.38 713.229L1038.88 629.247L1122.86 606.745L1061.38 713.229Z" fill="#F36D34"/>
</g>
<g opacity="0.3">
<path d="M1100.36 885.237L1003.76 859.355L1029.64 762.763L1100.36 885.237Z" fill="#6141ED"/>
<path opacity="0.484375" d="M1052.06 872.296L1003.76 859.355L1016.7 811.059L1052.06 872.296Z" fill="#7E66EC"/>
<path d="M1016.7 811.059L1065 824L1052.06 872.296L1016.7 811.059Z" fill="#7E66EC"/>
</g>
<g opacity="0.3">
<path d="M997.711 463.421L927 392.711L997.711 322V463.421Z" fill="#792314"/>
<path opacity="0.484375" d="M962.355 428.066L927 392.711L962.355 357.355V428.066Z" fill="#792314"/>
<path d="M962.355 357.355L997.711 392.711L962.355 428.066V357.355Z" fill="#CB3D25"/>
</g>
<g opacity="0.3">
<path d="M1254 813V713H1354L1254 813Z" fill="#6141ED"/>
<path opacity="0.484375" d="M1254 763V713H1304L1254 763Z" fill="#7E66EC"/>
<path d="M1304 713V763H1254L1304 713Z" fill="#7E66EC"/>
</g>
<g opacity="0.3">
<path d="M1204 609V509H1304L1204 609Z" fill="#6141ED"/>
<path opacity="0.484375" d="M1204 559V509H1254L1204 559Z" fill="#7E66EC"/>
<path d="M1254 509V559H1204L1254 509Z" fill="#7E66EC"/>
</g>
<g opacity="0.3">
<path d="M1029.64 42.7629L1126.24 68.6448L1100.36 165.237L1029.64 42.7629Z" fill="#979797"/>
<path opacity="0.484375" d="M1077.94 55.7038L1126.24 68.6448L1113.3 116.941L1077.94 55.7038Z" fill="#979797"/>
<path d="M1113.3 116.941L1065 104L1077.94 55.7038L1113.3 116.941Z" fill="#333333"/>
</g>
<g opacity="0.3">
<path d="M1111 375.71L1144.68 250L1270.39 283.684L1111 375.71Z" fill="#6141ED"/>
<path opacity="0.484375" d="M1127.84 312.856L1144.68 250.001L1207.54 266.843L1127.84 312.856Z" fill="#7E66EC"/>
<path d="M1207.54 266.843L1190.7 329.698L1127.84 312.856L1207.54 266.843Z" fill="#7E66EC"/>
</g>
<g opacity="0.3">
<path d="M1244.14 66.1364L1342.86 123.136L1285.86 221.863L1244.14 66.1364Z" fill="#6141ED"/>
<path opacity="0.484375" d="M1293.5 94.6365L1342.86 123.136L1314.36 172.5L1293.5 94.6365Z" fill="#7E66EC"/>
<path d="M1314.36 172.5L1265 144L1293.5 94.6365L1314.36 172.5Z" fill="#7E66EC"/>
</g>
<g opacity="0.3">
<path d="M86.6987 652.301L36.6987 565.699L123.301 515.699L86.6987 652.301Z" fill="#6141ED"/>
<path opacity="0.484375" d="M61.6987 609L36.6987 565.699L80 540.699L61.6987 609Z" fill="#7E66EC"/>
<path d="M80 540.699L105 584L61.6987 609L80 540.699Z" fill="#7E66EC"/>
</g>
<g opacity="0.3">
<path d="M151.546 843.472L96.7189 828.781L111.41 773.954L151.546 843.472Z" fill="#6141ED"/>
<path opacity="0.484375" d="M124.133 836.127L96.7189 828.781L104.064 801.368L124.133 836.127Z" fill="#7E66EC"/>
<path d="M104.064 801.368L131.478 808.713L124.133 836.127L104.064 801.368Z" fill="#7E66EC"/>
</g>
<g opacity="0.3">
<path d="M36.9249 283.125L159.037 250.406L191.757 372.517L36.9249 283.125Z" fill="#6141ED"/>
<path opacity="0.484375" d="M97.9809 266.765L159.037 250.406L175.397 311.461L97.9809 266.765Z" fill="#7E66EC"/>
<path d="M175.397 311.461L114.341 327.821L97.9809 266.765L175.397 311.461Z" fill="#7E66EC"/>
</g>
<g opacity="0.3">
<path d="M384.764 847.24L295 691.764L450.476 602L384.764 847.24Z" fill="#6DB6ED"/>
<path opacity="0.484375" d="M339.882 769.502L295 691.764L372.738 646.882L339.882 769.502Z" fill="#ECF6FC"/>
<path d="M372.738 646.882L417.62 724.62L339.882 769.502L372.738 646.882Z" fill="#ECF6FC"/>
</g>
<g opacity="0.3">
<path d="M330.355 595.237L233.763 569.355L259.645 472.763L330.355 595.237Z" fill="#6141ED"/>
<path opacity="0.484375" d="M282.059 582.296L233.763 569.355L246.704 521.059L282.059 582.296Z" fill="#7E66EC"/>
<path d="M246.704 521.059L295 534L282.059 582.296L246.704 521.059Z" fill="#7E66EC"/>
</g>
</svg>
