<svg version="1.1" id="Layer_1" xmlns="http://www.w3.org/2000/svg" xmlns:xlink="http://www.w3.org/1999/xlink" x="0px" y="0px"
	 viewBox="0 0 612 792" style="enable-background:new 0 0 612 792;" xml:space="preserve">
<style type="text/css">
	.st0{fill:#6141ED;}
	.st1{opacity:0.4844;fill:#7E66EC;enable-background:new    ;}
	.st2{fill:#7E66EC;}
</style>
<g>
	<g>
		<path class="st0" d="M121.35,22.97h39.94c26.67,0,41.5,10.84,41.5,32.38v0.57c0,14.55-7.7,22.68-18.4,26.82l24.39,42.22h-30.81
			L157.3,88.43h-6.85v36.51h-29.1V22.97z M159.86,69.46c9.84,0,14.69-4.14,14.69-12.41v-0.57c0-8.27-5.13-11.55-14.55-11.55h-9.56
			v24.53H159.86z"/>
		<path class="st0" d="M217.92,30.1c0-7.56,5.99-13.27,13.98-13.27c7.99,0,14.12,5.71,14.12,13.27s-6.13,13.12-14.12,13.12
			C223.91,43.22,217.92,37.66,217.92,30.1z M219.21,50.35h25.53v74.6h-25.53V50.35z"/>
		<path class="st0" d="M260.57,50.35h25.53v11.41c3.99-7.13,11.84-13.41,23.39-13.41c9.84,0,16.69,4.28,20.25,12.41
			c6.42-8.7,15.26-12.41,24.68-12.41c14.12,0,24.39,9.13,24.39,27.81v48.78h-25.53v-44.5c0-7.56-3.71-11.27-9.56-11.27
			c-6.85,0-11.41,4.42-11.41,12.55v43.22h-25.24v-44.5c0-7.56-3.71-11.27-9.56-11.27c-6.85,0-11.41,4.42-11.41,12.55v43.22h-25.53
			V50.35z"/>
		<path class="st0" d="M416.29,113.4v11.55h-25.53V17.55h25.53v43.93c4.28-7.13,11.98-13.12,23.25-13.12
			c17.4,0,31.52,13.12,31.52,38.66v1.14c0,25.67-14.12,38.51-31.66,38.51C428.27,126.66,420,121.38,416.29,113.4z M445.1,88.15
			v-1.14c0-13.12-5.71-19.4-14.69-19.4c-9.27,0-14.83,6.7-14.83,19.26V88c0,12.7,5.56,19.12,14.83,19.12
			C439.96,107.12,445.1,100.42,445.1,88.15z"/>
		<path class="st0" d="M481.32,17.55h25.39v107.4h-25.39V17.55z"/>
		<path class="st0" d="M514.06,88.58v-1.14c0-23.96,17.83-39.08,40.37-39.08c20.4,0,37.94,11.7,37.94,38.51v6.7h-52.49
			c0.71,9.84,6.42,15.54,15.55,15.54c8.41,0,11.98-3.85,12.98-8.84h23.96c-2.28,16.83-15.26,26.39-37.8,26.39
			C531.18,126.66,514.06,112.97,514.06,88.58z M567.55,79.16c-0.43-8.98-4.85-13.98-13.12-13.98c-7.7,0-12.98,4.99-14.26,13.98
			H567.55z"/>
	</g>
  <g id="eth-logo" >
     <polygon id="el-0" points="67.99 17.55 67.23 20.14 67.23 95.4 67.99 96.16 102.92 75.51 67.99 17.55" style="fill: #6141ed"/>
    <polygon id="el-1" points="67.99 17.55 33.06 75.51 67.99 96.16 67.99 59.63 67.99 17.55" style="fill: #7e66ec"/>
    <polygon id="el-2" points="67.99 102.77 67.56 103.3 67.56 130.1 67.99 131.36 102.94 82.13 67.99 102.77" style="fill: #6141ed"/>
    <polygon id="el-3" points="67.99 131.36 67.99 102.77 33.06 82.13 67.99 131.36" style="fill: #7e66ec"/>
    <polygon id="el-4" points="67.99 96.16 102.92 75.51 67.99 59.63 67.99 96.16" style="fill: #4d38e8"/>
    <polygon id="el-5" points="33.06 75.51 67.99 96.16 67.99 59.63 33.06 75.51" style="fill: #6141ed"/>
  </g>
	<g id="rimble-logo">
		<path id="rl-0" class="st0" d="M19.64,124.68V22.97h101.72L19.64,124.68z"/>
    <path id="rl-5" class="st0" d="M19.64,124.68V22.97h101.72L19.64,124.68z"/>
	</g>
    <path id="rl-3" class="st0" d="M19.64,124.68V22.97h101.72L19.64,124.68z"/>
		<path id="rl-1" class="st1" d="M20.02,73.83V22.97h50.86L20.02,73.83z"/>
    <path id="rl-4" class="st1" d="M20.02,73.83V22.97h50.86L20.02,73.83z"/>
		<path id="rl-2" class="st2" d="M70.88,22.97v50.86H20.02L70.88,22.97z"/>

</g>
</svg>
