<svg width="240" height="160" viewBox="0 0 240 160" fill="none" xmlns="http://www.w3.org/2000/svg">
<g clip-path="url(#clip0)">
<rect width="240" height="160" fill="#111111"/>
<path opacity="0.35" d="M162.237 78.1631V160.321H83.4742L162.237 78.1631Z" fill="#333333"/>
<path opacity="0.35" d="M84.1532 78.1631V160.321H5.39024L84.1532 78.1631Z" fill="#333333"/>
<path opacity="0.35" d="M161.558 -2.63675V78.8421H83.4742L161.558 -2.63675Z" fill="#333333"/>
<path opacity="0.35" d="M240.321 -2.63675V78.8421H161.558L240.321 -2.63675Z" fill="#333333"/>
<path opacity="0.35" d="M240.321 78.1631V160.321H161.558L240.321 78.1631Z" fill="#333333"/>
<path d="M83.4742 161V-2.63675H241L83.4742 161Z" fill="#6141ED"/>
<path opacity="0.484375" d="M83.4742 78.8422V-3.3157H162.237L83.4742 78.8422Z" fill="#7E66EC"/>
<path d="M162.237 -3.3157V78.8422H83.4742L162.237 -3.3157Z" fill="#7E66EC"/>
<path d="M56.6978 47.8557H67.6978V69.8557H56.6978C50.6226 69.8557 45.6978 64.9308 45.6978 58.8557C45.6978 52.7805 50.6226 47.8557 56.6978 47.8557Z" stroke="#F4F4F4" stroke-width="10"/>
<path d="M141.683 60.0775H146.683V70.0775H141.683C138.921 70.0775 136.683 67.8389 136.683 65.0775C136.683 62.3161 138.921 60.0775 141.683 60.0775Z" stroke="#F4F4F4" stroke-width="10"/>
<mask id="path-11-inside-1" fill="white">
<path d="M137 65C137 62.2386 139.239 60 142 60H147V70H142C139.239 70 137 67.7614 137 65V65Z"/>
</mask>
<path d="M147 60H157V50H147V60ZM147 70V80H157V70H147ZM142 70H147V50H142V70ZM137 60V70H157V60H137ZM147 60H142V80H147V60ZM142 60C144.761 60 147 62.2386 147 65H127C127 73.2843 133.716 80 142 80V60ZM142 50C133.716 50 127 56.7157 127 65H147C147 67.7614 144.761 70 142 70V50Z" fill="#7E66EC" mask="url(#path-11-inside-1)"/>
<path d="M102.869 112.36H112.869V122.36C112.869 127.883 108.392 132.36 102.869 132.36C97.3463 132.36 92.8691 127.883 92.8691 122.36C92.8691 116.837 97.3463 112.36 102.869 112.36Z" stroke="#F4F4F4" stroke-width="10"/>
<path d="M208.249 107.743V108.439C208.249 114.514 203.324 119.439 197.249 119.439C191.174 119.439 186.249 114.514 186.249 108.439V107.743C186.249 101.668 191.174 96.743 197.249 96.743C203.324 96.743 208.249 101.668 208.249 107.743Z" stroke="#F4F4F4" stroke-width="10"/>
<path d="M196 19H185V41H196C202.075 41 207 36.0751 207 30C207 23.9249 202.075 19 196 19Z" stroke="#F4F4F4" stroke-width="10"/>
<line x1="72.4193" y1="44.0934" x2="72.4193" y2="73.8989" stroke="#7165D8"/>
<line x1="42" y1="42.5" x2="72" y2="42.5" stroke="#7165D8"/>
<line x1="40.5" y1="44" x2="40.5" y2="73" stroke="#7165D8"/>
<rect x="0.25" y="-0.25" width="4.43333" height="4.43333" transform="matrix(1 0 0 -1 69.9733 44.4333)" fill="white" stroke="#7165D8" stroke-width="0.5"/>
<rect x="0.25" y="-0.25" width="4.43333" height="4.43333" transform="matrix(1 0 0 -1 69.9733 77.1394)" fill="white" stroke="#7165D8" stroke-width="0.5"/>
<rect x="0.25" y="-0.25" width="4.43333" height="4.43333" transform="matrix(1 0 0 -1 37.9066 77.1394)" fill="white" stroke="#7165D8" stroke-width="0.5"/>
<rect x="0.25" y="-0.25" width="4.43333" height="4.43333" transform="matrix(1 0 0 -1 37.9066 44.4333)" fill="white" stroke="#7165D8" stroke-width="0.5"/>
<line x1="42.8399" y1="75" x2="69.9733" y2="75" stroke="#7165D8"/>
<line x1="117.5" y1="109" x2="117.5" y2="136" stroke="#7165D8"/>
<line x1="87.5" y1="108" x2="87.5" y2="136" stroke="#7165D8"/>
<rect x="0.25" y="-0.25" width="4.3" height="4.3" transform="matrix(1 0 0 -1 115.2 109.3)" fill="white" stroke="#7165D8" stroke-width="0.5"/>
<rect x="0.25" y="-0.25" width="4.3" height="4.3" transform="matrix(1 0 0 -1 115.2 139.5)" fill="white" stroke="#7165D8" stroke-width="0.5"/>
<line x1="89" y1="107.5" x2="115.4" y2="107.5" stroke="#7165D8"/>
<line x1="89" y1="137.5" x2="115.4" y2="137.5" stroke="#7165D8"/>
<rect x="0.25" y="-0.25" width="4.3" height="4.3" transform="matrix(1 0 0 -1 85 139.5)" fill="white" stroke="#7165D8" stroke-width="0.5"/>
<rect x="0.25" y="-0.25" width="4.3" height="4.3" transform="matrix(1 0 0 -1 85 109.3)" fill="white" stroke="#7165D8" stroke-width="0.5"/>
<line x1="179.522" y1="16.0109" x2="179.522" y2="44.0769" stroke="#7165D8"/>
<line x1="211.889" y1="16" x2="211.889" y2="44.066" stroke="#7165D8"/>
<rect x="0.25" y="-0.25" width="4.43333" height="4.43333" transform="matrix(1 0 0 -1 209.115 15.808)" fill="white" stroke="#7165D8" stroke-width="0.5"/>
<rect x="0.25" y="-0.25" width="4.43333" height="4.43333" transform="matrix(1 0 0 -1 209.115 47.8746)" fill="white" stroke="#7165D8" stroke-width="0.5"/>
<rect x="0.25" y="-0.25" width="4.43333" height="4.43333" transform="matrix(1 0 0 -1 177.048 47.8746)" fill="white" stroke="#7165D8" stroke-width="0.5"/>
<rect x="0.25" y="-0.25" width="4.43333" height="4.43333" transform="matrix(1 0 0 -1 177.048 15.808)" fill="white" stroke="#7165D8" stroke-width="0.5"/>
<line x1="181.981" y1="13.5" x2="209.115" y2="13.5" stroke="#7165D8"/>
<line x1="181.981" y1="46.0829" x2="209.115" y2="46.0829" stroke="#7165D8"/>
</g>
<defs>
<clipPath id="clip0">
<rect width="240" height="160" fill="white"/>
</clipPath>
</defs>
</svg>
