<svg width="240" height="160" viewBox="0 0 240 160" fill="none" xmlns="http://www.w3.org/2000/svg">
<g clip-path="url(#clip0)">
<rect width="240" height="160" fill="#111111"/>
<path opacity="0.35" d="M162.237 78.1631V160.321H83.4742L162.237 78.1631Z" fill="#333333"/>
<path opacity="0.35" d="M84.1532 78.1631V160.321H5.39024L84.1532 78.1631Z" fill="#333333"/>
<path opacity="0.35" d="M161.558 -2.63675V78.8421H83.4742L161.558 -2.63675Z" fill="#333333"/>
<path opacity="0.35" d="M240.321 -2.63675V78.8421H161.558L240.321 -2.63675Z" fill="#333333"/>
<path opacity="0.35" d="M240.321 78.1631V160.321H161.558L240.321 78.1631Z" fill="#333333"/>
<path d="M83.4742 161V-2.63675H241L83.4742 161Z" fill="#6141ED"/>
<path opacity="0.484375" d="M83.4742 78.8422V-3.3157H162.237L83.4742 78.8422Z" fill="#7E66EC"/>
<path d="M162.237 -3.3157V78.8422H83.4742L162.237 -3.3157Z" fill="#7E66EC"/>
<path d="M56.654 47.8557H67.6103V69.7682H56.654C50.6031 69.7682 45.6978 64.8629 45.6978 58.8119C45.6978 52.7609 50.603 47.8557 56.654 47.8557Z" stroke="#F4F4F4" stroke-width="10"/>
<path d="M141.528 60.0775H146.373V69.7682H141.528C138.852 69.7682 136.683 67.5989 136.683 64.9228C136.683 62.2468 138.852 60.0775 141.528 60.0775Z" stroke="#F4F4F4" stroke-width="9.84536"/>
<path d="M102.486 112.36H113.103V122.977C113.103 128.84 108.349 133.593 102.486 133.593C96.6224 133.593 91.8691 128.84 91.8691 122.977C91.8691 117.113 96.6224 112.36 102.486 112.36Z" stroke="#F4F4F4" stroke-width="10"/>
<path d="M207.482 107.36V108.039C207.482 113.902 202.729 118.656 196.866 118.656C191.002 118.656 186.249 113.902 186.249 108.039V107.36C186.249 101.496 191.002 96.743 196.866 96.743C202.729 96.743 207.482 101.496 207.482 107.36Z" stroke="#F4F4F4" stroke-width="10"/>
<path d="M195.847 18.6591H184.891V40.5716H195.847C201.898 40.5716 206.803 35.6663 206.803 29.6153C206.803 23.5644 201.898 18.6591 195.847 18.6591Z" stroke="#F4F4F4" stroke-width="10"/>
<rect x="0.25" y="-0.25" width="4.37746" height="4.37746" transform="matrix(1 0 0 -1 69.6101 45.0168)" fill="white" stroke="#7165D8" stroke-width="0.5"/>
<rect x="0.25" y="-0.25" width="4.37746" height="4.37746" transform="matrix(1 0 0 -1 69.6101 76.7203)" fill="white" stroke="#7165D8" stroke-width="0.5"/>
<rect x="0.25" y="-0.25" width="4.37746" height="4.37746" transform="matrix(1 0 0 -1 37.9066 76.7203)" fill="white" stroke="#7165D8" stroke-width="0.5"/>
<rect x="0.25" y="-0.25" width="4.37746" height="4.37746" transform="matrix(1 0 0 -1 37.9066 45.0168)" fill="white" stroke="#7165D8" stroke-width="0.5"/>
<line x1="42.7841" y1="42.5447" x2="69.6101" y2="42.5447" stroke="#7165D8"/>
<line x1="42.7841" y1="74.225" x2="69.6101" y2="74.225" stroke="#7165D8"/>
<line x1="40.8453" y1="45.4817" x2="40.8453" y2="72.288" stroke="#7165D8"/>
<line x1="72.5488" y1="45.4817" x2="72.5488" y2="72.288" stroke="#7165D8"/>
<rect x="0.25" y="-0.25" width="4.37746" height="4.37746" transform="matrix(1 0 0 -1 115.946 109.237)" fill="white" stroke="#7165D8" stroke-width="0.5"/>
<rect x="0.25" y="-0.25" width="4.37746" height="4.37746" transform="matrix(1 0 0 -1 115.946 140.94)" fill="white" stroke="#7165D8" stroke-width="0.5"/>
<rect x="0.25" y="-0.25" width="4.37746" height="4.37746" transform="matrix(1 0 0 -1 84.2424 140.94)" fill="white" stroke="#7165D8" stroke-width="0.5"/>
<rect x="0.25" y="-0.25" width="4.37746" height="4.37746" transform="matrix(1 0 0 -1 84.2424 109.237)" fill="white" stroke="#7165D8" stroke-width="0.5"/>
<line x1="89.1199" y1="106.717" x2="115.946" y2="106.717" stroke="#7165D8"/>
<line x1="89.1199" y1="138.398" x2="115.946" y2="138.398" stroke="#7165D8"/>
<line x1="87.1811" y1="109.654" x2="87.1811" y2="136.461" stroke="#7165D8"/>
<line x1="118.885" y1="109.654" x2="118.885" y2="136.461" stroke="#7165D8"/>
<rect x="0.25" y="-0.25" width="4.37746" height="4.42172" transform="matrix(1 0 0 -1 208.751 15.7964)" fill="white" stroke="#7165D8" stroke-width="0.5"/>
<rect x="0.25" y="-0.25" width="4.37746" height="4.42172" transform="matrix(1 0 0 -1 208.751 47.7875)" fill="white" stroke="#7165D8" stroke-width="0.5"/>
<rect x="0.25" y="-0.25" width="4.37746" height="4.42172" transform="matrix(1 0 0 -1 177.048 47.7875)" fill="white" stroke="#7165D8" stroke-width="0.5"/>
<rect x="0.25" y="-0.25" width="4.37746" height="4.42172" transform="matrix(1 0 0 -1 177.048 15.7964)" fill="white" stroke="#7165D8" stroke-width="0.5"/>
<line x1="181.925" y1="13.3235" x2="208.751" y2="13.3235" stroke="#7165D8"/>
<line x1="181.925" y1="45.2913" x2="208.751" y2="45.2913" stroke="#7165D8"/>
<line x1="179.987" y1="16.2825" x2="179.987" y2="43.3322" stroke="#7165D8"/>
<line x1="211.69" y1="16.2825" x2="211.69" y2="43.3322" stroke="#7165D8"/>
</g>
<defs>
<clipPath id="clip0">
<rect width="240" height="160" fill="white"/>
</clipPath>
</defs>
</svg>
