<svg width="120" height="26" viewBox="0 0 120 26" fill="none" xmlns="http://www.w3.org/2000/svg">
<path d="M14.4 1.9H23.3C29.2 1.9 32.5 4.3 32.5 9.1V9.2C32.5 12.4 30.8 14.3 28.4 15.2L33.8 24.6H27L22.4 16.5H20.9V24.6H14.4V1.9ZM23 12.2C25.2 12.2 26.3 11.3 26.3 9.4V9.3C26.3 7.5 25.2 6.7 23.1 6.7H21V12.2H23Z" fill="#5E5E5E"/>
<path d="M35.9 3.5C35.9 1.8 37.2 0.5 39 0.5C40.8 0.5 42.1 1.8 42.1 3.5C42.1 5.2 40.7 6.4 39 6.4C37.3 6.4 35.9 5.2 35.9 3.5ZM36.2 8H41.9V24.6H36.2V8Z" fill="#5E5E5E"/>
<path d="M45.4 8H51.1V10.5C52 8.9 53.7 7.5 56.3 7.5C58.5 7.5 60 8.5 60.8 10.3C62.2 8.4 64.2 7.5 66.3 7.5C69.4 7.5 71.7 9.5 71.7 13.7V24.6H66V14.7C66 13 65.2 12.2 63.9 12.2C62.4 12.2 61.4 13.2 61.4 15V24.6H55.8V14.7C55.8 13 55 12.2 53.7 12.2C52.2 12.2 51.2 13.2 51.2 15V24.6H45.5V8H45.4Z" fill="#5E5E5E"/>
<path d="M80.1 22V24.6H74.4V0.699997H80.1V10.5C81.1 8.9 82.8 7.6 85.3 7.6C89.2 7.6 92.3 10.5 92.3 16.2V16.5C92.3 22.2 89.2 25.1 85.2 25.1C82.8 25 80.9 23.8 80.1 22ZM86.5 16.4V16.1C86.5 13.2 85.2 11.8 83.2 11.8C81.1 11.8 79.9 13.3 79.9 16.1V16.4C79.9 19.2 81.1 20.7 83.2 20.7C85.4 20.6 86.5 19.1 86.5 16.4Z" fill="#5E5E5E"/>
<path d="M94.6 0.699997H100.3V24.6H94.6V0.699997Z" fill="#5E5E5E"/>
<path d="M101.9 16.5V16.2C101.9 10.9 105.9 7.5 110.9 7.5C115.4 7.5 119.4 10.1 119.4 16.1V17.6H107.7C107.9 19.8 109.1 21.1 111.2 21.1C113.1 21.1 113.9 20.2 114.1 19.1H119.4C118.9 22.9 116 25 111 25C105.7 25 101.9 21.9 101.9 16.5ZM113.8 14.4C113.7 12.4 112.7 11.3 110.9 11.3C109.2 11.3 108 12.4 107.7 14.4H113.8Z" fill="#5E5E5E"/>
<path d="M0 16.2V1.9H14.4L0 16.2Z" fill="#5E5E5E"/>
<path opacity="0.4844" d="M0.100006 9V1.8H7.30001L0.100006 9Z" fill="#7C7C7C"/>
<path d="M7.20001 1.8V9H0.100006L7.20001 1.8Z" fill="#7C7C7C"/>
</svg>
