<svg width="120" height="25" viewBox="0 0 120 25" fill="none" xmlns="http://www.w3.org/2000/svg">
<path d="M14.9 1.4H23.8C29.7 1.4 33 3.8 33 8.6V8.7C33 11.9 31.3 13.8 28.9 14.7L34.3 24.1H27.4L22.9 16H21.4V24.1H14.9V1.4ZM23.4 11.7C25.6 11.7 26.7 10.8 26.7 8.9V8.8C26.7 7 25.6 6.2 23.5 6.2H21.4V11.7H23.4Z" fill="#6141ED"/>
<path d="M36.4 3C36.4 1.3 37.7 0 39.5 0C41.3 0 42.6 1.3 42.6 3C42.6 4.7 41.2 5.9 39.5 5.9C37.8 5.9 36.4 4.6 36.4 3ZM36.7 7.5H42.4V24.1H36.7V7.5Z" fill="#6141ED"/>
<path d="M45.9 7.5H51.6V10C52.5 8.4 54.2 7 56.8 7C59 7 60.5 8 61.3 9.8C62.7 7.9 64.7 7 66.8 7C69.9 7 72.2 9 72.2 13.2V24.1H66.5V14.2C66.5 12.5 65.7 11.7 64.4 11.7C62.9 11.7 61.9 12.7 61.9 14.5V24.1H56.3V14.2C56.3 12.5 55.5 11.7 54.2 11.7C52.7 11.7 51.7 12.7 51.7 14.5V24.1H46V7.5H45.9Z" fill="#6141ED"/>
<path d="M80.6 21.5V24.1H74.9V0.199997H80.6V10C81.6 8.4 83.3 7.1 85.8 7.1C89.7 7.1 92.8 10 92.8 15.7V16C92.8 21.7 89.7 24.6 85.7 24.6C83.3 24.5 81.4 23.3 80.6 21.5ZM87 15.9V15.6C87 12.7 85.7 11.3 83.7 11.3C81.6 11.3 80.4 12.8 80.4 15.6V15.9C80.4 18.7 81.6 20.2 83.7 20.2C85.9 20.1 87 18.6 87 15.9Z" fill="#6141ED"/>
<path d="M95.1 0.199997H100.8V24.1H95.1V0.199997Z" fill="#6141ED"/>
<path d="M102.4 16V15.7C102.4 10.4 106.4 7 111.4 7C115.9 7 119.9 9.6 119.9 15.6V17.1H108.2C108.4 19.3 109.6 20.6 111.7 20.6C113.6 20.6 114.4 19.7 114.6 18.6H119.9C119.4 22.4 116.5 24.5 111.5 24.5C106.2 24.5 102.4 21.4 102.4 16ZM114.3 13.9C114.2 11.9 113.2 10.8 111.4 10.8C109.7 10.8 108.5 11.9 108.2 13.9H114.3Z" fill="#6141ED"/>
<path d="M0.5 15.7V1.4H14.9L0.5 15.7Z" fill="#6141ED"/>
<path opacity="0.4844" d="M0.600006 8.5V1.3H7.80001L0.600006 8.5Z" fill="#7E66EC"/>
<path d="M7.70001 1.3V8.5H0.600006L7.70001 1.3Z" fill="#7E66EC"/>
</svg>
