<svg width="120" height="25" viewBox="0 0 120 25" fill="none" xmlns="http://www.w3.org/2000/svg">
<path d="M14.4 1.4H23.3C29.2 1.4 32.5 3.8 32.5 8.6V8.7C32.5 11.9 30.8 13.8 28.4 14.7L33.8 24.1H26.9L22.4 16H20.9V24.1H14.4V1.4V1.4ZM22.9 11.7C25.1 11.7 26.2 10.8 26.2 8.9V8.8C26.2 7 25.1 6.2 23 6.2H20.9V11.7H22.9V11.7Z" fill="white"/>
<path d="M35.9 3C35.9 1.3 37.2 0 39 0C40.8 0 42.1 1.3 42.1 3C42.1 4.7 40.7 5.9 39 5.9C37.3 5.9 35.9 4.6 35.9 3ZM36.2 7.5H41.9V24.1H36.2V7.5Z" fill="white"/>
<path d="M45.4 7.5H51.1V10C52 8.4 53.7 7 56.3 7C58.5 7 60 8 60.8 9.8C62.2 7.9 64.2 7 66.3 7C69.4 7 71.7 9 71.7 13.2V24.1H66V14.2C66 12.5 65.2 11.7 63.9 11.7C62.4 11.7 61.4 12.7 61.4 14.5V24.1H55.8V14.2C55.8 12.5 55 11.7 53.7 11.7C52.2 11.7 51.2 12.7 51.2 14.5V24.1H45.5V7.5H45.4Z" fill="white"/>
<path d="M80.1 21.5V24.1H74.4V0.199997H80.1V10C81.1 8.4 82.8 7.1 85.3 7.1C89.2 7.1 92.3 10 92.3 15.7V16C92.3 21.7 89.2 24.6 85.2 24.6C82.8 24.5 80.9 23.3 80.1 21.5ZM86.5 15.9V15.6C86.5 12.7 85.2 11.3 83.2 11.3C81.1 11.3 79.9 12.8 79.9 15.6V15.9C79.9 18.7 81.1 20.2 83.2 20.2C85.4 20.1 86.5 18.6 86.5 15.9Z" fill="white"/>
<path d="M94.6 0.199997H100.3V24.1H94.6V0.199997Z" fill="white"/>
<path d="M101.9 16V15.7C101.9 10.4 105.9 7 110.9 7C115.4 7 119.4 9.6 119.4 15.6V17.1H107.7C107.9 19.3 109.1 20.6 111.2 20.6C113.1 20.6 113.9 19.7 114.1 18.6H119.4C118.9 22.4 116 24.5 111 24.5C105.7 24.5 101.9 21.4 101.9 16ZM113.8 13.9C113.7 11.9 112.7 10.8 110.9 10.8C109.2 10.8 108 11.9 107.7 13.9H113.8Z" fill="white"/>
<path d="M0 15.7V1.4H14.4L0 15.7Z" fill="white"/>
<path opacity="0.4844" d="M0.100006 8.5V1.3H7.30001L0.100006 8.5Z" fill="#E5E5E5"/>
<path d="M7.20001 1.3V8.5H0.100006L7.20001 1.3Z" fill="#E5E5E5"/>
</svg>
